<svg width="150" height="59" viewBox="0 0 150 59" fill="none" xmlns="http://www.w3.org/2000/svg">
<g id="logo" clip-path="url(#clip0_83_643)">
<path id="Vector" d="M150 20.9824H122.963V29.4904H150V20.9824Z" fill="#004C3F"/>
<path id="Vector_2" d="M142.154 -0.000435666L118.739 13.6147L122.963 20.9829L146.377 7.36767L142.154 -0.000435666Z" fill="#90E665"/>
<path id="Vector_3" d="M122.963 29.4893L118.74 36.8574L142.154 50.4726L146.378 43.1045L122.963 29.4893Z" fill="#2A92FB"/>
<path id="Vector_4" d="M18.0301 29.8209V35.1645H5.88378C2.63436 35.1645 0 32.5113 0 29.2386V6.27441H17.5258V11.6181H5.65379V18.1847H14.9495V23.216H5.65379V28.2174C5.65379 29.1026 6.36592 29.8209 7.2458 29.8209H18.0301Z" fill="#004C3F"/>
<path id="Vector_5" d="M38.4023 25.4517C38.4023 19.3674 42.5074 15.3105 48.5874 15.3105C54.6674 15.3105 58.7334 19.3674 58.7334 25.4517C58.7334 31.5359 54.6674 35.5928 48.5874 35.5928C42.5074 35.5928 38.4023 31.5359 38.4023 25.4517ZM53.3117 25.4517C53.3117 22.3702 51.4528 20.3035 48.5874 20.3035C45.722 20.3035 43.824 22.3713 43.824 25.4517C43.824 28.532 45.722 30.5998 48.5874 30.5998C51.4528 30.5998 53.3117 28.532 53.3117 25.4517Z" fill="#004C3F"/>
<path id="Vector_6" d="M67.874 35.1634C63.692 35.1634 61.2908 32.8237 61.2908 28.6499V6.27441H66.5964V28.3386C66.5964 29.4692 67.2938 30.1322 68.4553 30.1322H71.2827V35.1634H67.8751H67.874Z" fill="#004C3F"/>
<path id="Vector_7" d="M90.8384 15.8184V35.1645H86.2302L85.5328 32.1617H85.3777C84.7194 34.2294 82.3962 35.6331 79.5688 35.6331C75.3868 35.6331 72.5984 32.7078 72.5984 28.3003V15.8194H77.904V26.4674C77.904 28.9634 79.3758 30.6411 81.5828 30.6411C83.984 30.6411 85.5328 28.8858 85.5328 26.2336V15.8194H90.8384V15.8184Z" fill="#004C3F"/>
<path id="Vector_8" d="M112.796 30.757V35.1646H109.969C107.994 35.1646 106.638 34.3846 106.058 32.9024C104.78 34.6577 102.65 35.6321 99.9008 35.6321C95.8348 35.6321 93.4727 33.5643 93.4727 29.9761C93.4727 27.0115 95.6027 25.0224 99.2815 24.4762L104.239 23.6963C105.208 23.5401 105.711 22.9164 105.711 22.0971V22.0196C105.711 20.6159 104.587 19.7181 102.69 19.7181C100.793 19.7181 99.2826 20.8497 98.9724 22.7602L94.2861 21.5903C95.2546 17.6514 98.3141 15.3499 102.767 15.3499C107.996 15.3499 111.016 17.9244 111.016 22.2927V29.6647C111.016 30.3671 111.327 30.757 111.869 30.757H112.798H112.796ZM105.71 27.5194V26.8171L101.178 27.5194C99.7067 27.7532 98.7772 28.5331 98.7772 29.704C98.7772 30.9908 99.8618 31.7718 101.643 31.7718C104.083 31.7718 105.709 30.094 105.709 27.5205L105.71 27.5194Z" fill="#004C3F"/>
<path id="Vector_9" d="M50.6762 52.8913H39.9753C40.1873 55.8527 42.041 57.7462 44.7692 57.7462C46.8349 57.7462 48.6358 56.4658 49.2456 54.5181L50.385 55.0249C49.617 57.4263 47.3392 59 44.7692 59C41.0081 59 38.5183 56.3319 38.5183 52.3037C38.5183 48.2755 41.0081 45.6074 44.7429 45.6074C48.4776 45.6074 50.6762 48.1416 50.6762 51.9297V52.8902V52.8913ZM39.9489 51.8511H49.272C49.2193 48.81 47.4975 46.8623 44.7165 46.8623C41.9355 46.8623 40.1346 48.8366 39.9489 51.8511Z" fill="#004C3F"/>
<path id="Vector_10" d="M56.9008 47.1555V56.2522C56.9008 56.9184 57.3249 57.3455 58.0128 57.3455H60.8729V58.7332H58.0655C56.5031 58.7332 55.4966 57.7196 55.4966 56.1459V47.1555H52.3706V45.9017H55.4966V41.7938H56.9008V45.9017H60.874V47.1555H56.9008Z" fill="#004C3F"/>
<path id="Vector_11" d="M75.1778 57.3722V58.7333H74.4098C73.244 58.7333 72.4495 57.9598 72.4495 56.7856V56.6794C71.4958 58.1202 69.8004 59 67.6556 59C64.9801 59 63.2056 57.5592 63.2056 55.3724C63.2056 53.5852 64.6889 52.1975 66.9403 51.8511L71.4431 51.1572C72.0518 51.051 72.4495 50.5707 72.4495 49.9565C72.4495 48.1693 71.019 46.8623 69.006 46.8623C66.8337 46.8623 65.1921 48.1427 65.0065 49.9034L63.7616 49.6367C64.1055 47.2087 66.1723 45.6085 69.006 45.6085C71.8398 45.6085 73.8538 47.3692 73.8538 50.0373V56.5731C73.8538 57.0534 74.1713 57.3732 74.6482 57.3732H75.1778V57.3722ZM72.4495 53.3174V52.1167L67.3106 52.9168C65.668 53.157 64.6087 54.1175 64.6087 55.3714C64.6087 56.8388 65.88 57.7993 67.7611 57.7993C70.5685 57.7993 72.4495 55.9855 72.4495 53.3174Z" fill="#004C3F"/>
<path id="Vector_12" d="M88.5806 50.7301V58.7333H87.1764V51.2104C87.1764 48.623 85.6403 46.8889 83.5472 46.8889C81.031 46.8889 79.362 48.8897 79.362 51.9308V58.7333H77.9578V45.9018H79.0708L79.362 48.3032C79.9707 46.703 81.6661 45.6085 83.6527 45.6085C86.6194 45.6085 88.5796 47.6625 88.5796 50.7301H88.5806Z" fill="#004C3F"/>
<path id="Vector_13" d="M91.8132 52.3037C91.8132 48.3021 94.3558 45.6074 98.1971 45.6074C102.038 45.6074 104.581 48.3021 104.581 52.3037C104.581 56.3053 102.012 59 98.1971 59C94.3822 59 91.8132 56.3319 91.8132 52.3037ZM103.123 52.3037C103.123 49.0491 101.136 46.8889 98.196 46.8889C95.2557 46.8889 93.2691 49.0501 93.2691 52.3037C93.2691 55.5573 95.2293 57.7196 98.196 57.7196C101.163 57.7196 103.123 55.5583 103.123 52.3037Z" fill="#004C3F"/>
<path id="Vector_14" d="M110.433 58.7332C108.87 58.7332 107.864 57.7196 107.864 56.1459V39.4998H109.268V56.2532C109.268 56.9194 109.692 57.3466 110.354 57.3466H112.684V58.7343H110.433V58.7332Z" fill="#004C3F"/>
<path id="Vector_15" d="M32.5164 15.8184L28.4114 29.977L26.0207 21.1322C25.509 19.3843 23.916 18.1847 22.1077 18.1847H17.5269V23.2159H19.6664C20.4556 23.2159 21.1571 23.7185 21.4177 24.4687L24.8876 35.1645H31.8201L38.5205 15.8184H32.5175H32.5164Z" fill="#004C3F"/>
</g>
<defs>
<clipPath id="clip0_83_643">
<rect width="150" height="59" fill="white"/>
</clipPath>
</defs>
</svg>
